<svg xmlns="http://www.w3.org/2000/svg" viewBox="0 0 415.06 45.1"><defs><style>.cls-1{fill:#2a4d87;}</style></defs><title>Asset 8</title><g id="Layer_2" data-name="Layer 2"><g id="elements"><path class="cls-1" d="M88.18,9.05a9.55,9.55,0,0,1,6.52,2.42l-2.79,4.4S91,14.21,88,14.21a4.49,4.49,0,0,0,.23,9,5.5,5.5,0,0,0,2.25-.51L88.34,28.3c-3.55,0-9.92-2.49-9.92-9.62,0-6.8,6-9.63,9.77-9.63"/><polygon class="cls-1" points="90.66 19.36 95.78 17.84 95.78 29.67 90.35 30.88 90.66 19.36"/><path class="cls-1" d="M116.77,18.78a9.78,9.78,0,0,1-19.55,0,9.78,9.78,0,0,1,19.55,0M107,13.93a4.7,4.7,0,1,0,4.81,4.69A4.75,4.75,0,0,0,107,13.93"/><path class="cls-1" d="M117.5,9.51h5.74l-.16,5.91s-.29,3.33,2.64,3.33,2.95-3.48,2.95-3.48V9.35h5.28l.15,7.28a7.21,7.21,0,0,1-5.43,7.13V28h-5.59l-.15-4.2a7.32,7.32,0,0,1-5.45-7.23c0-4.25,0-7.06,0-7.06"/><rect class="cls-1" x="79.18" y="32.53" width="73.39" height="2.67"/><path class="cls-1" d="M144.05,9.05c7,0,8.35,6.21,8.35,8.64S152.25,28,152.25,28h-5V22.85h-7v5h-5.12s.15-5.46.15-10.16,2.5-8.64,8.71-8.64m-3.74,10H147s.76-5.16-3.28-5.16-3.39,5.16-3.39,5.16"/><path class="cls-1" d="M11.38,13.26a1,1,0,0,1-.14.44,1.76,1.76,0,0,0-.1.23L8.87,19.14c-.32.72-.64,1.46-1,2.22L7,23.57q-.46,1.07-.88,2.07l-.72,1.73a2.7,2.7,0,0,1-.24.44c-.09.11-.21.23-.34.37a1.93,1.93,0,0,1-.48.34l-.52.17-.77.2-.91.19a5.36,5.36,0,0,1-.89.08A2.15,2.15,0,0,1,.34,29,.55.55,0,0,1,0,28.44a1.27,1.27,0,0,1,.17-.53c.21-.4.54-1,1-1.76s.93-1.55,1.39-2.34l1.79-2.92Q5,19.81,5.64,18.7l1.15-2.08c.36-.65.68-1.24,1-1.77s.55-.93.76-1.23A1.6,1.6,0,0,1,9.47,13a4.37,4.37,0,0,1,1-.15,2.6,2.6,0,0,1,.6.07.32.32,0,0,1,.26.34m3.06-5.78a2.66,2.66,0,0,1-.22,1.06,3.15,3.15,0,0,1-.6.93,3,3,0,0,1-.84.64,2.06,2.06,0,0,1-.95.24,1.32,1.32,0,0,1-1-.39,1.49,1.49,0,0,1-.36-1.06,2.54,2.54,0,0,1,.23-1,3.41,3.41,0,0,1,.58-.91,3,3,0,0,1,.84-.66,2.14,2.14,0,0,1,1-.25,1.25,1.25,0,0,1,1,.4,1.5,1.5,0,0,1,.36,1"/><path class="cls-1" d="M404.19,21.94a1.06,1.06,0,0,1,.12-.44,2,2,0,0,0,.09-.24L406.5,16c.3-.72.59-1.47.89-2.25l.87-2.25c.29-.72.56-1.42.81-2.09l.66-1.75A2.83,2.83,0,0,1,410,7.2a4.52,4.52,0,0,1,.33-.38,1.86,1.86,0,0,1,.47-.35l.51-.18.76-.23.9-.21a4.93,4.93,0,0,1,.89-.11,2.2,2.2,0,0,1,.87.12.56.56,0,0,1,.36.54,1.29,1.29,0,0,1-.16.54c-.19.41-.51,1-1,1.79s-.88,1.58-1.31,2.38l-1.7,3c-.41.73-.81,1.47-1.2,2.23l-1.08,2.12-.92,1.79c-.28.53-.52,1-.72,1.25a1.61,1.61,0,0,1-.93.65,4.27,4.27,0,0,1-1,.19,2.46,2.46,0,0,1-.6,0,.31.31,0,0,1-.27-.33m-2.87,5.87a2.65,2.65,0,0,1,.19-1.06,3.21,3.21,0,0,1,.57-.94,3.14,3.14,0,0,1,.82-.67,2.13,2.13,0,0,1,.94-.26,1.32,1.32,0,0,1,1,.35,1.49,1.49,0,0,1,.39,1.05,2.57,2.57,0,0,1-.19,1,3.53,3.53,0,0,1-.55.93,3,3,0,0,1-.82.68,2.08,2.08,0,0,1-1,.28,1.26,1.26,0,0,1-1-.37,1.51,1.51,0,0,1-.39-1"/><path class="cls-1" d="M35.56,7.63a2,2,0,0,1-.07.5,2.87,2.87,0,0,1-.38,1,2.53,2.53,0,0,1-2.37,1.25l-.41,0a4.39,4.39,0,0,1-.58-.17A1.12,1.12,0,0,1,31,9.15a1.08,1.08,0,0,1,0-.27l.1-.3a1.64,1.64,0,0,0,.1-.34,2.47,2.47,0,0,0,0-.43q0-1.72-2.72-1.71a5.69,5.69,0,0,0-3,.77,2.67,2.67,0,0,0-1.44,2.32,2.86,2.86,0,0,0,1.2,2.08,12.8,12.8,0,0,0,1.24.94l.52.34a.33.33,0,0,0,.17.14l.72.5a15.22,15.22,0,0,1,1.38,1.18,8.39,8.39,0,0,1,1.24,1.41,6.83,6.83,0,0,1,1.2,4A8,8,0,0,1,29,25.82,10.92,10.92,0,0,1,25.39,28a15.33,15.33,0,0,1-5.09.81q-4.16,0-6.36-1.85A5.19,5.19,0,0,1,12,22.79a6.89,6.89,0,0,1,1.86-4.71,6.15,6.15,0,0,1,4.71-2.15,2.68,2.68,0,0,1,2,.57,1.58,1.58,0,0,1,.34,1.11,1.31,1.31,0,0,1-.45,1,1.36,1.36,0,0,1-.34.2l-.14.07a5.29,5.29,0,0,0-2.2.67,3.52,3.52,0,0,0-1.65,2.22l-.07.6a2.88,2.88,0,0,0,1.69,2.79,5.14,5.14,0,0,0,1.48.5,9.33,9.33,0,0,0,1.41.1,7.83,7.83,0,0,0,3.71-.8,5.09,5.09,0,0,0,2-1.85,5.71,5.71,0,0,0,.82-1.95,7.43,7.43,0,0,0,.1-.77,3.16,3.16,0,0,0,0-.43,4.18,4.18,0,0,0-1.17-2.75A14.44,14.44,0,0,0,24.94,16a6.49,6.49,0,0,0-.69-.57L23.74,15a.81.81,0,0,0-.17-.14q-.9-.74-1.38-1.17A9.84,9.84,0,0,1,21,12.47a4.92,4.92,0,0,1-1.17-3.09l.07-.74a2.44,2.44,0,0,1,.1-.41,5.55,5.55,0,0,1,1-2.15A6.84,6.84,0,0,1,23.8,4a14.19,14.19,0,0,1,5.4-.9A12.35,12.35,0,0,1,31,3.27a8.27,8.27,0,0,1,2.1.57A4.47,4.47,0,0,1,34.88,5,3.34,3.34,0,0,1,35.6,7.2a3,3,0,0,1,0,.44"/><path class="cls-1" d="M38.69,18.39q-.24.51-.69,1.31c-.11.18-.24.4-.38.67l-.82,1.44-1.07,2.05a5.56,5.56,0,0,0-.69,2,1,1,0,0,0,.1.44,1.73,1.73,0,0,0,.21.3l.21.24a.64.64,0,0,1,.1.33q0,1.48-3.2,1.48l-.24,0a2,2,0,0,1-.55-.14,1.07,1.07,0,0,1-.83-1,5.51,5.51,0,0,1,.69-2q.27-.6.69-1.38A16.53,16.53,0,0,1,33,22.52l1.45-2.72a5.43,5.43,0,0,0,.69-1.75.89.89,0,0,0-.07-.34l-.1-.27a.58.58,0,0,1-.1-.23.59.59,0,0,1-.07-.27q0-1.31,2.78-1.31h.62a3.34,3.34,0,0,1,.58.1.78.78,0,0,1,.58.8,5.21,5.21,0,0,1-.69,1.85M41.1,13a2.7,2.7,0,0,1-1.82.77,1.32,1.32,0,0,1-1.48-1.51,2.27,2.27,0,0,1,.86-1.71,2.69,2.69,0,0,1,1.82-.77A1.29,1.29,0,0,1,42,11.26,2.42,2.42,0,0,1,41.1,13"/><path class="cls-1" d="M56.34,21.65a9.45,9.45,0,0,1-2.86,1.58,11.43,11.43,0,0,1-3.75.67h0a.23.23,0,0,0-.1.1.76.76,0,0,0-.14.2,2.23,2.23,0,0,0,0,.44c0,1.21.69,1.81,2.06,1.81a4,4,0,0,0,1.55-.3,5.14,5.14,0,0,0,1.06-.64l.79-.6a1.45,1.45,0,0,1,.79-.3.84.84,0,0,1,1,.94,2.94,2.94,0,0,1-1.48,2.28,8,8,0,0,1-4.68,1.28A4.48,4.48,0,0,1,47,27.83a4.27,4.27,0,0,1-1.1-3.09,9.7,9.7,0,0,1,2.65-6.42,10.22,10.22,0,0,1,3-2.39A7.93,7.93,0,0,1,55.28,15q3.54,0,3.54,2.55,0,2.15-2.48,4.1m-1.07-3.93a.57.57,0,0,0-.28-.24,1.46,1.46,0,0,0-.31-.1h-.14a4.22,4.22,0,0,0-2.92,1.71,4.55,4.55,0,0,0-1.41,2.36c0,.13.06.2.17.2a5.83,5.83,0,0,0,3.51-1.21,3.07,3.07,0,0,0,1.51-2.29.68.68,0,0,0-.14-.43"/><path class="cls-1" d="M72.45,15.57a1.11,1.11,0,0,1-.21.4,1.14,1.14,0,0,1-1,.54,1.83,1.83,0,0,1-.62-.1l-.72-.3a1.92,1.92,0,0,0-.34-.1,4.89,4.89,0,0,0-1.07-.1l-.79,0a5.55,5.55,0,0,0-.93.2,1.45,1.45,0,0,0-1.14,1.41,1.58,1.58,0,0,0,.69,1.18,2.16,2.16,0,0,0,.34.27l1.2.81a7.65,7.65,0,0,1,1.58,1.44,3.89,3.89,0,0,1,.75,2.25q.11,2.79-2.82,4.6a11.09,11.09,0,0,1-5.95,1.61,6.9,6.9,0,0,1-3.68-.87,2.87,2.87,0,0,1-1.55-2.62,4.51,4.51,0,0,1,1.55-3.33,5.46,5.46,0,0,1,4-1.61q1.65,0,1.65,1.14a1.05,1.05,0,0,1-.34.77,1.63,1.63,0,0,1-.62.37,3.55,3.55,0,0,0-2.48,1.14,1.5,1.5,0,0,0-.31.67l-.07.44c0,.58.35,1,1.06,1.21a1.91,1.91,0,0,0,.41.1l.38.07a1.83,1.83,0,0,0,.34,0h.21a6.14,6.14,0,0,0,2.48-.47,4.22,4.22,0,0,0,2.2-2.32l.14-.5a1.65,1.65,0,0,0,0-.3,2.55,2.55,0,0,0-.72-1.72c-.21-.2-.46-.42-.76-.67l-.86-.6a12.49,12.49,0,0,1-1.65-1.35,2.73,2.73,0,0,1-.72-1.81q0-1.68,2.06-2.89a8.71,8.71,0,0,1,4.47-1.14H69l.55.07a7.09,7.09,0,0,1,1.3.23c1.12.31,1.69.81,1.69,1.48a1.06,1.06,0,0,1-.07.34"/><path class="cls-1" d="M162.68,28.24a2.78,2.78,0,0,1-1.93.84,1.4,1.4,0,0,1-1.58-1.58,2.44,2.44,0,0,1,1-1.85,2.84,2.84,0,0,1,1.89-.77q1.58,0,1.58,1.51a2.56,2.56,0,0,1-.93,1.85"/><path class="cls-1" d="M167.63,28.24a2.78,2.78,0,0,1-1.93.84,1.4,1.4,0,0,1-1.58-1.58,2.44,2.44,0,0,1,1-1.85,2.84,2.84,0,0,1,1.89-.77q1.58,0,1.58,1.51a2.56,2.56,0,0,1-.93,1.85"/><path class="cls-1" d="M172.58,28.24a2.78,2.78,0,0,1-1.93.84,1.4,1.4,0,0,1-1.58-1.58,2.44,2.44,0,0,1,1-1.85,2.84,2.84,0,0,1,1.89-.77q1.58,0,1.58,1.51a2.56,2.56,0,0,1-.93,1.85"/><path class="cls-1" d="M190,18.39q-.24.51-.69,1.31c-.11.18-.24.4-.38.67l-.83,1.44L187,23.87a5.54,5.54,0,0,0-.69,2,1,1,0,0,0,.1.44,1.89,1.89,0,0,0,.21.3l.21.24a.64.64,0,0,1,.1.33q0,1.48-3.2,1.48l-.24,0a2,2,0,0,1-.55-.14,1.07,1.07,0,0,1-.82-1,5.56,5.56,0,0,1,.69-2c.18-.4.41-.86.69-1.38a16,16,0,0,1,.79-1.48l1.44-2.72a5.45,5.45,0,0,0,.69-1.75.89.89,0,0,0-.07-.34l-.1-.27a.64.64,0,0,1-.1-.23.61.61,0,0,1-.07-.27q0-1.31,2.79-1.31h.62a3.29,3.29,0,0,1,.58.1.78.78,0,0,1,.58.8,5.17,5.17,0,0,1-.69,1.85M192.38,13a2.71,2.71,0,0,1-1.82.77,1.32,1.32,0,0,1-1.48-1.51,2.27,2.27,0,0,1,.86-1.71,2.69,2.69,0,0,1,1.82-.77,1.29,1.29,0,0,1,1.48,1.44,2.42,2.42,0,0,1-.86,1.78"/><path class="cls-1" d="M199.77,21.65a9.47,9.47,0,0,1-2.85,1.58,11.44,11.44,0,0,1-3.75.67h0a.24.24,0,0,0-.1.1.74.74,0,0,0-.14.2,2.12,2.12,0,0,0,0,.44c0,1.21.69,1.81,2.06,1.81a4,4,0,0,0,1.55-.3,5.07,5.07,0,0,0,1.07-.64l.79-.6a1.46,1.46,0,0,1,.79-.3.84.84,0,0,1,1,.94,2.94,2.94,0,0,1-1.48,2.28,8,8,0,0,1-4.68,1.28,4.47,4.47,0,0,1-3.47-1.28,4.26,4.26,0,0,1-1.1-3.09A9.7,9.7,0,0,1,192,18.32a10.2,10.2,0,0,1,3-2.39A7.93,7.93,0,0,1,198.7,15q3.54,0,3.54,2.55,0,2.15-2.48,4.1m-1.07-3.93a.57.57,0,0,0-.28-.24,1.48,1.48,0,0,0-.31-.1H198a4.21,4.21,0,0,0-2.92,1.71,4.53,4.53,0,0,0-1.41,2.36c0,.13.06.2.17.2a5.83,5.83,0,0,0,3.51-1.21,3.08,3.08,0,0,0,1.51-2.29.67.67,0,0,0-.14-.43"/><path class="cls-1" d="M216.38,20.61c-.16.4-.36.85-.58,1.35s-.38.79-.65,1.31a2.11,2.11,0,0,0-.21.34l-.48,1q-.38.71-.59,1.21a5.28,5.28,0,0,0-.59,2,1.8,1.8,0,0,0,0,.34l.24.57a1,1,0,0,1,0,.27c0,.81-.62,1.21-1.86,1.21s-2-.58-2-1.75a6.12,6.12,0,0,1,.58-2.28c.16-.38.36-.81.59-1.28l2-3.73a5,5,0,0,0,.58-1.85.69.69,0,0,0-.34-.64l-.28-.07a.83.83,0,0,0-.24,0q-2,0-4.88,3a21.81,21.81,0,0,0-4.16,5.88,2,2,0,0,1-1.24,1,6.93,6.93,0,0,1-.72.17l-.59,0a1.3,1.3,0,0,1-.86-.24.39.39,0,0,1-.2-.33,2.56,2.56,0,0,1,.31-.87l3.4-6q.62-1.07,1-1.78a7.8,7.8,0,0,0,1-3.36,1.38,1.38,0,0,1,.65-1.31,2,2,0,0,1,.55-.2,3.2,3.2,0,0,1,.48,0,1.79,1.79,0,0,1,1,.27,1.47,1.47,0,0,1,.55,1.31,3.8,3.8,0,0,1-.1.87,4.16,4.16,0,0,1-.45,1.11.27.27,0,0,0,0,.13c0,.07,0,.1.07.1a.28.28,0,0,0,.21-.13,4.71,4.71,0,0,1,.51-.5q.62-.51,1.31-1a9.7,9.7,0,0,1,1.82-.94,6,6,0,0,1,2.13-.43h.28l.38.07a2.25,2.25,0,0,1,.89.3A2.4,2.4,0,0,1,217,18a7.42,7.42,0,0,1-.59,2.62"/><path class="cls-1" d="M226.72,21.65a9.49,9.49,0,0,1-2.85,1.58,11.45,11.45,0,0,1-3.75.67h0a.23.23,0,0,0-.1.1.76.76,0,0,0-.14.2,2.41,2.41,0,0,0,0,.44q0,1.82,2.06,1.81a4,4,0,0,0,1.55-.3,5.1,5.1,0,0,0,1.07-.64l.79-.6a1.45,1.45,0,0,1,.79-.3.84.84,0,0,1,1,.94,2.94,2.94,0,0,1-1.48,2.28,8,8,0,0,1-4.67,1.28,4.48,4.48,0,0,1-3.47-1.28,4.27,4.27,0,0,1-1.1-3.09A9.7,9.7,0,0,1,219,18.32a10.29,10.29,0,0,1,3-2.39,7.94,7.94,0,0,1,3.75-.94c2.36,0,3.54.85,3.54,2.55q0,2.15-2.48,4.1m-1.06-3.93a.58.58,0,0,0-.28-.24,1.51,1.51,0,0,0-.31-.1h-.14A4.22,4.22,0,0,0,222,19.09a4.55,4.55,0,0,0-1.41,2.36c0,.13.06.2.17.2a5.84,5.84,0,0,0,3.51-1.21,3.08,3.08,0,0,0,1.51-2.29.67.67,0,0,0-.14-.43"/><path class="cls-1" d="M267.33,17.21c-.21.4-.49.91-.86,1.51q-.21.37-.45.74l-.79,1.25c-.66,1.12-1.23,2.16-1.69,3.12a19.29,19.29,0,0,0-.93,2.22,12.6,12.6,0,0,0-.41,1.44l-.07.77a1.47,1.47,0,0,0,.07.4l0,.33q0,1-1.34,1Q259,30,259,28.24a3.19,3.19,0,0,1,0-.44,2,2,0,0,1,.07-.5,5.27,5.27,0,0,1,.48-1.31v-.13c0-.07-.06-.1-.1-.1s-.12.06-.21.17-.12.19-.41.5a9.17,9.17,0,0,1-1.24,1.07,8.34,8.34,0,0,1-1.86,1,5.54,5.54,0,0,1-2.27.5l-.69-.07a2.6,2.6,0,0,1-.86-.34,2.41,2.41,0,0,1-1.1-2.28,9.82,9.82,0,0,1,1.34-4.2,5.3,5.3,0,0,1,.41-.77l.89-1.51q.55-1,.86-1.64a3.54,3.54,0,0,0,.41-1.21l-.07-.57q0-1.28,2.48-1.28c1,0,1.51.41,1.51,1.24A4.2,4.2,0,0,1,258,18l-1.38,2.32c-.32.49-.57.91-.76,1.24l-.65,1.21a5.26,5.26,0,0,0-.62,2,.63.63,0,0,0,0,.2.35.35,0,0,0,.1.27.58.58,0,0,0,.24.27.93.93,0,0,0,.52.13,4.09,4.09,0,0,0,2.41-1.11A18.82,18.82,0,0,0,260.49,22,32.92,32.92,0,0,0,262.66,19,18.94,18.94,0,0,0,264,16.87a2.22,2.22,0,0,1,1.17-1.11,3.18,3.18,0,0,1,.72-.13,2.09,2.09,0,0,1,.38,0h.38a2.13,2.13,0,0,1,.58.07,1.31,1.31,0,0,1,.34.17.45.45,0,0,1,.17.37,2.76,2.76,0,0,1-.41,1"/><path class="cls-1" d="M276.23,21.65a9.49,9.49,0,0,1-2.85,1.58,11.43,11.43,0,0,1-3.75.67h0a.22.22,0,0,0-.1.1.68.68,0,0,0-.14.2,2.11,2.11,0,0,0,0,.44q0,1.82,2.06,1.81a4,4,0,0,0,1.55-.3,5.08,5.08,0,0,0,1.07-.64l.79-.6a1.44,1.44,0,0,1,.79-.3.84.84,0,0,1,1,.94,2.94,2.94,0,0,1-1.48,2.28,8,8,0,0,1-4.68,1.28,4.49,4.49,0,0,1-3.47-1.28,4.28,4.28,0,0,1-1.1-3.09,9.7,9.7,0,0,1,2.65-6.42,10.22,10.22,0,0,1,3-2.39,7.94,7.94,0,0,1,3.75-.94q3.54,0,3.54,2.55,0,2.15-2.48,4.1m-1.07-3.93a.57.57,0,0,0-.27-.24,1.54,1.54,0,0,0-.31-.1h-.14a4.21,4.21,0,0,0-2.92,1.71,4.54,4.54,0,0,0-1.41,2.36c0,.13.06.2.17.2a5.82,5.82,0,0,0,3.51-1.21,3.07,3.07,0,0,0,1.51-2.29.66.66,0,0,0-.14-.43"/><path class="cls-1" d="M301.28,15.57a1.34,1.34,0,0,1-1.23.94,1.84,1.84,0,0,1-.62-.1l-.72-.3a1.91,1.91,0,0,0-.34-.1,4.89,4.89,0,0,0-1.07-.1l-.79,0a5.52,5.52,0,0,0-.93.2,1.45,1.45,0,0,0-1.14,1.41,1.59,1.59,0,0,0,.69,1.18,2.37,2.37,0,0,0,.35.27l1.2.81a7.65,7.65,0,0,1,1.58,1.44A3.92,3.92,0,0,1,299,23.5q.1,2.79-2.82,4.6a11.09,11.09,0,0,1-5.95,1.61,6.9,6.9,0,0,1-3.68-.87A2.87,2.87,0,0,1,285,26.22a4.5,4.5,0,0,1,1.55-3.33,5.46,5.46,0,0,1,4-1.61q1.65,0,1.65,1.14a1.06,1.06,0,0,1-.34.77,1.67,1.67,0,0,1-.62.37,3.55,3.55,0,0,0-2.47,1.14,1.5,1.5,0,0,0-.31.67l-.07.44c0,.58.36,1,1.07,1.21a1.84,1.84,0,0,0,.41.1l.38.07a1.82,1.82,0,0,0,.34,0h.21a6.14,6.14,0,0,0,2.48-.47,4.22,4.22,0,0,0,2.2-2.32l.14-.5a1.66,1.66,0,0,0,0-.3,2.54,2.54,0,0,0-.72-1.72c-.21-.2-.46-.42-.76-.67l-.86-.6a12.52,12.52,0,0,1-1.65-1.35,2.73,2.73,0,0,1-.72-1.81q0-1.68,2.06-2.89a8.71,8.71,0,0,1,4.47-1.14h.38l.55.07a7.11,7.11,0,0,1,1.31.23c1.12.31,1.68.81,1.68,1.48a1.06,1.06,0,0,1-.07.34"/><path class="cls-1" d="M309.95,21.65a9.44,9.44,0,0,1-2.86,1.58,11.43,11.43,0,0,1-3.75.67h0a.24.24,0,0,0-.1.1.72.72,0,0,0-.14.2,2.07,2.07,0,0,0,0,.44q0,1.82,2.06,1.81a4,4,0,0,0,1.55-.3,5.12,5.12,0,0,0,1.06-.64l.79-.6a1.44,1.44,0,0,1,.79-.3.84.84,0,0,1,1,.94,3,3,0,0,1-1.48,2.28,8,8,0,0,1-4.68,1.28,4.48,4.48,0,0,1-3.47-1.28,4.27,4.27,0,0,1-1.1-3.09,9.69,9.69,0,0,1,2.65-6.42,10.19,10.19,0,0,1,3-2.39,7.94,7.94,0,0,1,3.75-.94q3.54,0,3.54,2.55,0,2.15-2.48,4.1m-1.06-3.93a.57.57,0,0,0-.28-.24,1.48,1.48,0,0,0-.31-.1h-.14a4.22,4.22,0,0,0-2.93,1.71,4.56,4.56,0,0,0-1.41,2.36c0,.13.06.2.17.2a5.83,5.83,0,0,0,3.51-1.21A3.07,3.07,0,0,0,309,18.15a.68.68,0,0,0-.14-.43"/><path class="cls-1" d="M324.71,21.08c-.62,1.08-1.34,1.61-2.17,1.61a1.3,1.3,0,0,1-1.13-.44.61.61,0,0,1-.17-.34,1.28,1.28,0,0,1,0-.3,1.26,1.26,0,0,1,.17-.64l.72-1.18a1.72,1.72,0,0,0,.17-.74c0-.38-.22-.57-.65-.57a3.75,3.75,0,0,0-2.24,1.24,17.71,17.71,0,0,0-2,2.12q-.83,1-1.58,2.18-.62,1-1.17,2a17.24,17.24,0,0,0-.79,1.61,2,2,0,0,1-1.24,1,4.53,4.53,0,0,1-.72.17l-.58,0c-.73,0-1.1-.27-1.1-.81a3.12,3.12,0,0,1,.38-.94c.18-.4.44-.91.76-1.51l1-1.81c.07-.11.1-.15.1-.13q.86-1.44,1.48-2.62c.34-.67.62-1.27.82-1.78s.28-.84.38-1.17a3.69,3.69,0,0,0,.07-.67,1.62,1.62,0,0,0,0-.34l-.24-.6a.88.88,0,0,1,0-.23q0-1,2-1,1.55,0,1.55,1.24a4.11,4.11,0,0,1-.27,1.31v.1c0,.07.06.1.1.1s.15-.05.24-.17a2.72,2.72,0,0,1,.41-.4,10.32,10.32,0,0,1,1.07-.91,8.15,8.15,0,0,1,1.58-.91,4.84,4.84,0,0,1,1.86-.4c1.42,0,2.13.89,2.13,2.65a6.08,6.08,0,0,1-.89,3.19"/><path class="cls-1" d="M348.93,1.15l-2.06,3.23-4.57,7.93c-.46.81-.89,1.6-1.3,2.38a5,5,0,0,1,3.26,1.78,5.11,5.11,0,0,1,1,3.16,9.65,9.65,0,0,1-2.48,6.28,7.59,7.59,0,0,1-5.91,3.16,4.34,4.34,0,0,1-1.72-.34l-.65-.3a.78.78,0,0,0-.48-.13,2.77,2.77,0,0,0-.41,0l-.62.13a.72.72,0,0,1-.21,0,1.14,1.14,0,0,1-.34.07,1.44,1.44,0,0,1-.55-.1.82.82,0,0,1-.31-.23.49.49,0,0,1-.14-.23.72.72,0,0,1,0-.24,6.06,6.06,0,0,1,.83-2.35q.24-.54.69-1.41l.72-1.35,1.2-2.42q.69-1.38,1.34-2.55a1,1,0,0,1-.28,0h-.27q-.9,0-.9-1,0-1.64,3.06-2l2.62-4.77,4.54-8A3.09,3.09,0,0,1,346.32.41,7,7,0,0,1,347.8.07a2.39,2.39,0,0,1,.65-.06,1.44,1.44,0,0,1,.66.17.42.42,0,0,1,.14.3,2.13,2.13,0,0,1-.31.67m-9.35,16.17-3.37,6.52a5.81,5.81,0,0,0-.72,2.12q0,.74,1.34.74,1.89,0,3.71-2.25a7.06,7.06,0,0,0,1.75-4.37q0-2.48-2.72-2.75"/><path class="cls-1" d="M361.27,17.21q-.31.6-.86,1.51-.21.37-.45.74l-.79,1.25c-.66,1.12-1.23,2.16-1.68,3.12a19.69,19.69,0,0,0-.93,2.22,13.1,13.1,0,0,0-.41,1.44l-.07.77a1.45,1.45,0,0,0,.07.4l0,.33c0,.67-.44,1-1.34,1q-1.93,0-1.93-1.78a3.12,3.12,0,0,1,0-.44,2,2,0,0,1,.07-.5A5.33,5.33,0,0,1,353.5,26v-.13c0-.07-.06-.1-.1-.1s-.11.06-.21.17-.11.19-.41.5a9.37,9.37,0,0,1-1.23,1.07,8.43,8.43,0,0,1-1.86,1,5.55,5.55,0,0,1-2.27.5l-.69-.07a2.63,2.63,0,0,1-.86-.34,2.41,2.41,0,0,1-1.1-2.28,9.83,9.83,0,0,1,1.34-4.2,5.06,5.06,0,0,1,.41-.77l.89-1.51q.55-1,.86-1.64a3.58,3.58,0,0,0,.41-1.21l-.07-.57q0-1.28,2.48-1.28,1.51,0,1.51,1.24A4.21,4.21,0,0,1,352,18l-1.38,2.32c-.32.49-.57.91-.76,1.24l-.65,1.21a5.26,5.26,0,0,0-.62,2,.64.64,0,0,0,0,.2.36.36,0,0,0,.1.27.59.59,0,0,0,.24.27.93.93,0,0,0,.51.13,4.09,4.09,0,0,0,2.41-1.11A18.76,18.76,0,0,0,354.43,22,32,32,0,0,0,356.6,19a18.87,18.87,0,0,0,1.34-2.15,2.21,2.21,0,0,1,1.17-1.11,3.18,3.18,0,0,1,.72-.13,2.1,2.1,0,0,1,.38,0h.38a2.11,2.11,0,0,1,.58.07,1.22,1.22,0,0,1,.34.17.45.45,0,0,1,.17.37,2.77,2.77,0,0,1-.41,1"/><path class="cls-1" d="M370.17,21.65a9.5,9.5,0,0,1-2.86,1.58,11.43,11.43,0,0,1-3.75.67h0a.23.23,0,0,0-.1.1.76.76,0,0,0-.14.2,2.11,2.11,0,0,0,0,.44q0,1.82,2.06,1.81a4,4,0,0,0,1.55-.3,5,5,0,0,0,1.07-.64l.79-.6a1.45,1.45,0,0,1,.79-.3.84.84,0,0,1,1,.94A2.94,2.94,0,0,1,369,27.83a8,8,0,0,1-4.68,1.28,4.48,4.48,0,0,1-3.47-1.28,4.27,4.27,0,0,1-1.1-3.09,9.69,9.69,0,0,1,2.65-6.42,10.2,10.2,0,0,1,3-2.39A7.92,7.92,0,0,1,369.1,15q3.54,0,3.54,2.55,0,2.15-2.47,4.1m-1.07-3.93a.56.56,0,0,0-.27-.24,1.49,1.49,0,0,0-.31-.1h-.14a4.21,4.21,0,0,0-2.92,1.71A4.54,4.54,0,0,0,364,21.45c0,.13.06.2.17.2a5.81,5.81,0,0,0,3.51-1.21,3.07,3.07,0,0,0,1.51-2.29.66.66,0,0,0-.14-.43"/><path class="cls-1" d="M386.78,20.61c-.16.4-.36.85-.58,1.35s-.38.79-.66,1.31a2.27,2.27,0,0,0-.21.34l-.48,1a12.75,12.75,0,0,0-.58,1.21,5.28,5.28,0,0,0-.59,2,1.76,1.76,0,0,0,0,.34l.24.57a1.12,1.12,0,0,1,0,.27c0,.81-.62,1.21-1.86,1.21s-2-.58-2-1.75a6.13,6.13,0,0,1,.58-2.28c.16-.38.36-.81.59-1.28l2-3.73a5,5,0,0,0,.59-1.85.69.69,0,0,0-.34-.64l-.28-.07a.83.83,0,0,0-.24,0q-2,0-4.88,3A21.8,21.8,0,0,0,374,27.46a2,2,0,0,1-1.24,1,7,7,0,0,1-.72.17l-.59,0a1.3,1.3,0,0,1-.86-.24.39.39,0,0,1-.21-.33,2.64,2.64,0,0,1,.31-.87l3.4-6q.62-1.07,1-1.78a7.82,7.82,0,0,0,1-3.36,1.38,1.38,0,0,1,.65-1.31,2.08,2.08,0,0,1,.55-.2,3.17,3.17,0,0,1,.48,0,1.79,1.79,0,0,1,1,.27,1.47,1.47,0,0,1,.55,1.31,3.66,3.66,0,0,1-.1.87,4.09,4.09,0,0,1-.45,1.11.28.28,0,0,0,0,.13c0,.07,0,.1.07.1a.27.27,0,0,0,.21-.13,4.91,4.91,0,0,1,.52-.5q.62-.51,1.31-1a9.73,9.73,0,0,1,1.82-.94,6,6,0,0,1,2.13-.43H385l.38.07a2.28,2.28,0,0,1,.9.3A2.41,2.41,0,0,1,387.37,18a7.45,7.45,0,0,1-.59,2.62"/><path class="cls-1" d="M401.64,20.57a3.29,3.29,0,0,1-.79.23l-.72.1a.87.87,0,0,0-.28,0c-.12,0-.24.26-.38.7a13.48,13.48,0,0,1-2.41,4.27,9,9,0,0,1-2.68,2.18,8.44,8.44,0,0,1-2.34.84l-.45.06a1.58,1.58,0,0,1-.34,0l-.45,0a3.75,3.75,0,0,1-3-1.21,4.5,4.5,0,0,1-.93-3,10.09,10.09,0,0,1,2.48-6.42,9.71,9.71,0,0,1,2.82-2.38,7.25,7.25,0,0,1,3.58-.94,4,4,0,0,1,2.3.61,2.35,2.35,0,0,1,1,2.08v.27a1.5,1.5,0,0,1,0,.3c0,.11,0,.17.1.17a9.24,9.24,0,0,0,1.31-.17l1.13-.13c.53,0,.79.29.79.87a1.43,1.43,0,0,1-.72,1.44m-6.26-2.72a4.62,4.62,0,0,0-3.68,2.25,6.87,6.87,0,0,0-1.51,4.1q0,2.08,1.75,2.08A3.49,3.49,0,0,0,395,24.37a8.13,8.13,0,0,0,.69-1.54,3.92,3.92,0,0,0,.21-1.11.54.54,0,0,0-.07-.27.56.56,0,0,0-.1-.27l-.1-.3a.85.85,0,0,1-.07-.33,1.52,1.52,0,0,1,.66-1.07,3.52,3.52,0,0,1,.41-.24l.17-.07c.09-.07.14-.13.14-.2q0-1.11-1.55-1.11"/><path class="cls-1" d="M409.85,25a2.24,2.24,0,1,1-2.28,2.24A2.23,2.23,0,0,1,409.85,25Zm0,.34a1.9,1.9,0,0,0,0,3.79,1.9,1.9,0,0,0,0-3.79Zm-.43,3.19H409v-2.5a4.64,4.64,0,0,1,.72-.06,1.36,1.36,0,0,1,.79.19.59.59,0,0,1,.23.52.63.63,0,0,1-.5.61v0c.22,0,.37.24.43.61a1.91,1.91,0,0,0,.17.61h-.43a1.84,1.84,0,0,1-.18-.64.47.47,0,0,0-.55-.44h-.28Zm0-1.38h.3c.34,0,.62-.12.62-.43s-.17-.43-.62-.43l-.3,0Z"/><path class="cls-1" d="M249.17,25.16a144.68,144.68,0,0,0-6.91,15.14,3.63,3.63,0,0,0-.29,1.16c0,.56.3.68.68.68s.66-.06,1-.06.5.08.49.42c0,.82-2.81,2.62-4.27,2.6-.81,0-1.52-.81-1.5-2.2a6.57,6.57,0,0,1,.21-1.38,110.27,110.27,0,0,1,5.32-12.36,3.09,3.09,0,0,0,.48-1.27c0-.15,0-.23-.11-.23a.75.75,0,0,0-.39.18c-.94.77-3.54,2.76-5.08,2.74a2.94,2.94,0,0,1-2.56-3.16c.08-4.88,7.9-13.17,12.28-13.1,2.53,0,3.2,1.93,3.16,4.07,0,1.73-1,3.93-2.49,6.76m-9.32,1.58c0,.53.22.76.56.76,1.5,0,5.36-3.41,6.14-4.37a10,10,0,0,0,2.2-5.11c0-.57-.14-.91-.52-.91-2.42,0-8.33,6.7-8.38,9.63"/><path class="cls-1" d="M183.07,11.86l-3.05,0q-.86,0-.86-.74c0-1,.69-1.67,2-1.74,0,0,1.41-.05,2.48-.1l1.76-3.15c.27-.6,1.12-.91,2.54-.91.73,0,1.1.16,1.1.47a1.06,1.06,0,0,1-.07.34c-.07.13-.1.19-.1.17q-.45.74-1,1.61L187,9.31c1.58,0,2.23.27,2.23.83v.07a.61.61,0,0,1,0,.2,1.1,1.1,0,0,1-.1.3L189,11a2,2,0,0,1-.69.64,2.7,2.7,0,0,1-1.27.27c-.39,0-.81,0-1.54-.06a32.64,32.64,0,0,0-1.92,3.36c-.37.89-.82,1.61-1.17,2.35-.25.51-.51,1.1-.76,1.75L181,20.86a2.37,2.37,0,0,0-.21.4l-.41,1.08a16.45,16.45,0,0,0-.59,1.7,9.62,9.62,0,0,0-.39,1.75,2.9,2.9,0,0,0,.1.77l.91.79c.07.18-.47.35-.47.5a1.18,1.18,0,0,1-.79,1.11,1.88,1.88,0,0,1-.58.17,1.21,1.21,0,0,1-.34.06c-1.06,0-1.22-.44-1.63-1.31a3.93,3.93,0,0,1-.31-1l0-.77a9.3,9.3,0,0,1,.48-2.72,19.57,19.57,0,0,1,1.1-2.76q.45-1,.83-1.75l.65-1.38"/></g></g></svg>