<svg xmlns="http://www.w3.org/2000/svg" viewBox="0 0 225.04 119.47"><defs><style>.cls-1,.cls-2{fill:#2a4d87;}.cls-2{fill-rule:evenodd;}</style></defs><title>Asset 4</title><g id="Layer_2" data-name="Layer 2"><g id="elements"><path class="cls-1" d="M213.48,106.14a5.78,5.78,0,1,1,5.79,5.72,5.69,5.69,0,0,1-5.79-5.72m5.79,4.77a4.75,4.75,0,1,0-4.65-4.77,4.6,4.6,0,0,0,4.65,4.77m-1.21-1.46h-1v-6.58h2.5c1.56,0,2.32.58,2.32,1.87a1.71,1.71,0,0,1-1.7,1.81l1.87,2.9H221l-1.74-2.85h-1.15Zm1.19-3.7c.84,0,1.6-.06,1.6-1.07,0-.82-.74-1-1.43-1h-1.36v2Z"/><path class="cls-1" d="M213.48,106.14a5.78,5.78,0,1,1,5.79,5.72A5.69,5.69,0,0,1,213.48,106.14Zm5.79,4.77a4.75,4.75,0,1,0-4.65-4.77A4.6,4.6,0,0,0,219.28,110.9Zm-1.21-1.46h-1v-6.58h2.5c1.56,0,2.32.58,2.32,1.87a1.71,1.71,0,0,1-1.7,1.81l1.87,2.9H221l-1.74-2.85h-1.15Zm1.19-3.7c.84,0,1.6-.06,1.6-1.07,0-.82-.74-1-1.43-1h-1.36v2Z"/><path class="cls-2" d="M36.66,77.75A12,12,0,1,0,27,96.92a12.13,12.13,0,0,0,6.73-2V86.58l14.33-3v31.86l-14.42,4.06V101L27,111.69A26.8,26.8,0,1,1,44.33,64.46Z"/><path class="cls-2" d="M67.54,84.9a12,12,0,1,1,12,12,12,12,0,0,1-12-12m-14.77,0a26.8,26.8,0,1,1,26.8,26.81A26.81,26.81,0,0,1,52.77,84.9"/><path class="cls-2" d="M111.53,76.17A22.79,22.79,0,0,0,127,97.41v12.71h14.61V97.73a22.8,22.8,0,0,0,15.25-21.55V58.43H141.62l.19,18.24a7.76,7.76,0,0,1-7.74,7.89,7.89,7.89,0,0,1-7.88-7.89V59.18H111.26Z"/><path class="cls-2" d="M196,86H176.82V81.66a9.59,9.59,0,1,1,19.18,0Zm13.83,23.65H195.68v-8.69h-19v8.69H162V81a23.89,23.89,0,1,1,47.79,0Z"/><path class="cls-1" d="M10.52,16.48c-1,0-1.08,0-1.48.68L7,20.76a3.88,3.88,0,0,0-.67,1.55c0,.27.23.44.84.54L8,23a.81.81,0,0,1-.17,1.21c-1.69-.07-2.76-.1-4.25-.1-1.18,0-2.29,0-3.24.1C-.09,24-.09,23.22.21,23L1,22.85c1.69-.27,2.09-.57,3.81-3.07,3-4.45,6.07-8.9,9.06-13.34A18.73,18.73,0,0,0,16,2.76a7.35,7.35,0,0,0,3.5-1.45h.07a.53.53,0,0,1,.61.54c0,6-.24,12-.24,17.93,0,2.36,0,2.93,1.62,3.14l.81.1c.27.2.2,1-.1,1.18-1.25-.07-3.07-.1-4.75-.1-1.89,0-3.4,0-4.45.1-.44-.14-.37-.94-.17-1.18l.78-.1c1.55-.2,1.72-.64,1.75-1.45l.14-4.28c0-.67,0-.71-1.08-.71ZM14.8,14.7c.81,0,.84-.07.88-.91l.2-4.14c0-1,0-2.46,0-3.1h-.07c-.51.81-1.14,1.89-2,3.13L11.1,14c-.4.61-.3.74.64.74Z"/><path class="cls-1" d="M23.8,20.66a12.25,12.25,0,0,1,3-7.31c2-2.26,4.21-3.2,6.07-3.2s3.44.91,3.44,2.59A2.18,2.18,0,0,1,34,14.86a1.23,1.23,0,0,1-1.35-1.25c0-.64,0-2-.67-2s-1.28.64-2.09,2.12a13.34,13.34,0,0,0-1.65,6.13c0,1.62.61,2.23,1.42,2.23s2-.54,3.5-2.16a.66.66,0,0,1,.71.74,8.66,8.66,0,0,1-6.71,3.87c-2.22,0-3.4-1.55-3.4-3.91"/><path class="cls-1" d="M49.69,12.84c0,3.47-5.76,5.09-8.49,5.8A5.29,5.29,0,0,0,41,20.25c0,.91.44,1.86,1.45,1.86a6.91,6.91,0,0,0,4.38-2.36.7.7,0,0,1,.67.78,8.63,8.63,0,0,1-7.35,4c-2.43,0-3.61-1.72-3.61-3.87a11.68,11.68,0,0,1,4.55-8.6,8.61,8.61,0,0,1,5.29-2c2,0,3.27,1.21,3.27,2.7m-5.9-.34a11.61,11.61,0,0,0-2.33,4.65,6.94,6.94,0,0,0,3.2-1.92,5.05,5.05,0,0,0,1.21-2.84.72.72,0,0,0-.64-.77,2.14,2.14,0,0,0-1.45.88"/><path class="cls-1" d="M55.15,21.36c-.13.3-.1.51.14.51a10.29,10.29,0,0,0,3.17-2.12.66.66,0,0,1,.64.81c-1.31,1.75-4.31,4-7.08,4a1.74,1.74,0,0,1-1.55-1.35,4.13,4.13,0,0,1,.41-1.45l3.51-8.39c.13-.27.1-.47-.07-.47-.57,0-2.46,1.42-3,1.92a.65.65,0,0,1-.54-.81c1.82-2.22,5-3.87,6.78-3.87a1.66,1.66,0,0,1,1.55,1.48,4.43,4.43,0,0,1-.44,1.48ZM59,1.69a1.9,1.9,0,0,1,2,2.09,2.72,2.72,0,0,1-2.7,2.86,1.94,1.94,0,0,1-2.09-2A2.86,2.86,0,0,1,59,1.69"/><path class="cls-1" d="M68.56,12.37l-3.14,8.73c-.17.47-.17.78.2.78.61,0,2.22-1.21,3.57-2.6a.65.65,0,0,1,.67.78c-1.15,1.72-4.58,4.52-7.35,4.52A1.53,1.53,0,0,1,61,23.12a5.3,5.3,0,0,1,.37-1.82l3.07-8.93H61.92c-.34-.27-.1-1.08.27-1.28l2.93-.61,2.43-3.23A2.13,2.13,0,0,1,68.69,7a1.48,1.48,0,0,1,1.25.57L69,10.62h3.1c.54.44.17,1.52-.17,1.75Z"/><path class="cls-1" d="M84.43,12.84c0,3.47-5.76,5.09-8.49,5.8a5.24,5.24,0,0,0-.17,1.62c0,.91.44,1.86,1.45,1.86a6.92,6.92,0,0,0,4.38-2.36.7.7,0,0,1,.67.78,8.63,8.63,0,0,1-7.35,4c-2.43,0-3.6-1.72-3.6-3.87a11.68,11.68,0,0,1,4.55-8.6,8.6,8.6,0,0,1,5.29-2c2,0,3.27,1.21,3.27,2.7m-5.9-.34a11.6,11.6,0,0,0-2.33,4.65,6.94,6.94,0,0,0,3.2-1.92,5,5,0,0,0,1.21-2.84.72.72,0,0,0-.64-.77,2.14,2.14,0,0,0-1.45.88"/><path class="cls-1" d="M105.93,11l2.19-6.58c.4-1.21.37-1.55-.24-1.92L106.94,2a.69.69,0,0,1,.17-.81A27.71,27.71,0,0,1,113.21,0c.24,0,.34.13.34.34-.54,1.41-.94,2.59-1.55,4.38l-4.89,14.66a12,12,0,0,0-.57,2.16c0,.2.1.4.3.4a8.34,8.34,0,0,0,3.07-2.12c.4,0,.61.27.54.78-.74,1.11-3.5,4-6.84,4a1.25,1.25,0,0,1-1.28-1.41,10,10,0,0,1,.67-2.43l.78-2.22h-.07c-1.58,2.39-4.21,6.07-7.92,6.07-1.48,0-2.49-1.31-2.43-3.2a12.43,12.43,0,0,1,4.28-8.42,10,10,0,0,1,6.47-2.8,2.19,2.19,0,0,1,1.82.84M97.2,21.9c0,.51.17.74.51.74.57,0,2.93-1.79,4.48-3.77a15.66,15.66,0,0,0,2.76-5c.44-1.28.17-2.29-.4-2.29-.2,0-.5,0-1.25.57a15.59,15.59,0,0,0-3.24,3.57C98.42,18.13,97.2,21,97.2,21.9"/><path class="cls-1" d="M124.5,12.84c0,3.47-5.76,5.09-8.49,5.8a5.34,5.34,0,0,0-.17,1.62c0,.91.44,1.86,1.45,1.86a6.92,6.92,0,0,0,4.38-2.36.7.7,0,0,1,.67.78,8.63,8.63,0,0,1-7.35,4c-2.43,0-3.61-1.72-3.61-3.87a11.68,11.68,0,0,1,4.55-8.6,8.61,8.61,0,0,1,5.29-2c2,0,3.27,1.21,3.27,2.7m-5.9-.34a11.59,11.59,0,0,0-2.33,4.65,7,7,0,0,0,3.2-1.92,5.07,5.07,0,0,0,1.21-2.84.72.72,0,0,0-.64-.77,2.14,2.14,0,0,0-1.45.88"/><path class="cls-1" d="M141,4.35a13.11,13.11,0,0,1,8.33-3c4.11,0,9.27,2.22,9.27,9.5a15,15,0,0,1-4.15,10,13.46,13.46,0,0,1-9.23,3.84c-7.72,0-9.6-5.33-9.6-9A14.92,14.92,0,0,1,141,4.35m5.09,0c-2.73,2.12-5.66,7.62-5.66,13.14,0,3.24,1.48,5.63,4.32,5.63a6.19,6.19,0,0,0,4.61-2.43,18.86,18.86,0,0,0,4.42-12.23c0-3.94-1.72-5.56-4.08-5.56a5.74,5.74,0,0,0-3.61,1.45"/><path class="cls-1" d="M158.54,23.12a6.12,6.12,0,0,1,.47-2l5.76-16.68c.4-1.21.37-1.55-.24-1.92L163.6,2a.68.68,0,0,1,.17-.81A28,28,0,0,1,170,0c.24,0,.34.13.34.34-.51,1.41-1,2.63-1.58,4.41l-5.53,16c-.34.94-.44,1.55,0,1.55.74,0,2.7-2.06,3.5-3a.62.62,0,0,1,.64.74c-1,1.88-2.83,4.52-6.67,4.52-1.68,0-2.16-.77-2.16-1.45"/><path class="cls-1" d="M173.14,21.36c-.14.3-.1.51.13.51a10.23,10.23,0,0,0,3.17-2.12.66.66,0,0,1,.64.81c-1.32,1.75-4.31,4-7.08,4a1.74,1.74,0,0,1-1.55-1.35,4.18,4.18,0,0,1,.4-1.45l3.5-8.39c.14-.27.1-.47-.07-.47-.57,0-2.46,1.42-3,1.92a.65.65,0,0,1-.54-.81c1.82-2.22,5-3.87,6.78-3.87a1.66,1.66,0,0,1,1.55,1.48,4.52,4.52,0,0,1-.44,1.48ZM177,1.69a1.91,1.91,0,0,1,2,2.09,2.72,2.72,0,0,1-2.7,2.86,2,2,0,0,1-2.09-2A2.86,2.86,0,0,1,177,1.69"/><path class="cls-1" d="M187,11.83a7.23,7.23,0,0,1-.54,2.12l-1.85,5a7.16,7.16,0,0,0-.54,2.16c0,.37.2.95.78.95s1.89-.74,3.13-2.5a11.16,11.16,0,0,0,1.69-4.88,7.25,7.25,0,0,0-.31-2.46,2,2,0,0,1,2.06-2.06c1.65.17,1.92,1.38,1.92,2.53,0,2.56-2.7,7-5.86,9.5-2.63,2.12-4.15,2.39-5.49,2.39a2.37,2.37,0,0,1-2.16-2.33,8.11,8.11,0,0,1,.51-2.7l2-5.46c.23-.61.3-1.18-.07-1.18-.67,0-2,1.22-2.8,2a.7.7,0,0,1-.67-.54c.88-1.75,3.71-4.18,6.61-4.18A1.64,1.64,0,0,1,187,11.83"/><path class="cls-1" d="M205.63,11.39l.78-1.59a1.73,1.73,0,0,1,.91-.23,4.1,4.1,0,0,1,1.25.2,2.14,2.14,0,0,1,1.24.88c-1.28,3.17-2.76,6.91-4,10.65-.14.44-.17.71.07.71A8,8,0,0,0,209,19.92a.65.65,0,0,1,.64.74c-1.48,2.09-4.38,3.94-6.74,3.94a1.33,1.33,0,0,1-1.31-1.31,4.64,4.64,0,0,1,.37-1.42l1-2.6h-.14c-2,2.63-5.22,5.29-7.69,5.29a2.16,2.16,0,0,1-2.05-2.09c0-2,2-6.2,5.05-9,2.23-2,4.22-2.9,6-2.9a2.63,2.63,0,0,1,1.48.77m-2.22.71c-.5,0-1.11.3-2.26,1.75-1.68,2.12-3.23,5.46-3.34,7.34v.3c0,.34.2.54.47.54.74,0,2.59-2,3.61-3.34a26.33,26.33,0,0,0,2.93-5.33c-.4-1-.88-1.28-1.41-1.28"/><rect class="cls-1" y="34.42" width="209.81" height="3.65"/><rect class="cls-1" y="41.65" width="209.81" height="0.97"/></g></g></svg>